<svg width="20" height="20" xmlns="http://www.w3.org/2000/svg">
 <g>
  <title>Layer 1</title>
  <path fill="#007f00" stroke-width="0" stroke-dasharray="null" stroke-opacity="null" opacity="undefined" d="m13.47096,0.09876c-2.85498,0.52574 -3.8032,2.91693 -3.84019,4.28419c1.56946,0.11358 2.55296,-0.77355 2.95307,-1.2924c0.6548,-0.73655 0.81313,-1.77339 0.88713,-2.99179l-0.00001,0zm0.35106,4.72302c-2.06422,0 -3.21723,0.84324 -3.78427,0.85271c-0.65308,-0.05077 -2.55296,-0.81485 -3.66122,-0.82689c-3.88064,0.1153 -4.99062,4.33237 -4.94243,6.14535c0.31579,6.93954 4.55093,8.73186 5.24273,8.89965c0.55585,0.10928 2.42733,-0.85615 3.8032,-0.81141c1.50321,0.1566 2.55468,0.77871 3.157,0.73569c0.76494,-0.05335 3.25509,-2.06508 4.00626,-5.16873c-1.51267,-1.27949 -2.44712,-2.44024 -2.53059,-3.5399c-0.03958,-0.4982 0.70987,-3.31274 1.90332,-4.10349c0.17209,-0.97231 -1.60044,-2.2062 -2.99093,-2.17866c-0.06884,-0.00258 -0.13595,-0.0043 -0.20307,-0.0043l0,-0.00002z" id="svg_9" stroke="#000000"/>
  <path stroke="#000000" fill="#007f00" stroke-width="0" stroke-dasharray="null" stroke-opacity="null" opacity="undefined" d="m6.67145,0.09876c2.81797,0.52574 3.7539,2.91693 3.79041,4.28419c-1.54911,0.11358 -2.51987,-0.77355 -2.91479,-1.2924c-0.64631,-0.73655 -0.80259,-1.77339 -0.87563,-2.99179l0.00001,0zm-0.34651,4.72302c2.03746,0 3.17552,0.84324 3.73521,0.85271c0.64461,-0.05077 2.51987,-0.81485 3.61376,-0.82689c3.83033,0.1153 4.92593,4.33237 4.87836,6.14535c-0.3117,6.93954 -4.49194,8.73186 -5.17477,8.89965c-0.54864,0.10928 -2.39586,-0.85615 -3.7539,-0.81141c-1.48372,0.1566 -2.52156,0.77871 -3.11608,0.73569c-0.75502,-0.05335 -3.21289,-2.06508 -3.95433,-5.16873c1.49306,-1.27949 2.4154,-2.44024 2.49779,-3.5399c0.03907,-0.4982 -0.70067,-3.31274 -1.87865,-4.10349c-0.16986,-0.97231 1.57969,-2.2062 2.95216,-2.17866c0.06795,-0.00258 0.13419,-0.0043 0.20044,-0.0043l0,-0.00002z" id="svg_1"/>
  <rect stroke="#000000" id="svg_2" height="15.70957" width="19.86799" y="4.78548" x="0.06601" opacity="undefined" stroke-opacity="null" stroke-dasharray="null" stroke-width="0" fill="#222222"/>
  <ellipse stroke="#000000" ry="7.45875" rx="7.45875" id="svg_3" cy="12.50825" cx="10" opacity="undefined" stroke-opacity="null" stroke-dasharray="null" stroke-width="0" fill="#e00000"/>
 </g>

</svg>